# xmcd CD database file
#
# Track frame offsets:
#	150
#	20183
#	37020
#	56293
#	75915
#	100068
#	118585
#	136590
#	164828
#	179973
#	201785
#	216648
#	234373
#	255460
#	272295
#	296980
#
# Disc length: 4231 seconds
#
# Revision: 2
# Processed by: cddbd v1.5PL3 Copyright (c) Steve Scherf et al.
# Submitted via: CDex 1.50Beta7
#
DISCID=eb108510
DTITLE=Various Artist - 円盤皇女ワるきゅーレ キャラソンBEST！
DYEAR=2004
DGENRE=Anime
TTITLE0=望月久代・田中理恵・西村ちなみ・千葉紗子/セーブ
TTITLE1=ワるきゅーレ(望月久代)/Suki-Suki-Suki〜和な感じ〜
TTITLE2=真田さん(田中理恵)/waku waku MAX
TTITLE3=七村秋菜(千葉紗子)/きれいな涙〜きれいなナミダ やさしいキモチ〜
TTITLE4=ライネ(飯塚雅弓)/PINK BIG BANG〜桃色宇宙大爆発〜
TTITLE5=ワルキューレ(緒方恵美)/あなたの花嫁になりたい
TTITLE6=望月久代/ラブピー！
TTITLE7=ハイドラ(西村ちなみ)/星たちのレジェンド
TTITLE8=真田さん(田中理恵)&侍女部隊(桃井はるこ・比佐廉・中原麻衣)/侍女部隊隊歌
TTITLE9=ワルキューレ(緒方恵美)&ワるきゅーレ(望月久代)/時の小径
TTITLE10=時野リカ(南央美)/B-myself
TTITLE11=七村秋菜(千葉紗子)&ハイドラ(西村ちなみ)/秋ドラのデュエット
TTITLE12=コーラス(桑島法子)/ボクのキモチ
TTITLE13=真田さん(田中理恵)/あなたの涙をいただくわ！
TTITLE14=ワルキューレ(緒方恵美)/blue moon
TTITLE15=望月久代・田中理恵・西村ちなみ・千葉紗子/マーブル
EXTD=YEAR: 2004
EXTT0=
EXTT1=
EXTT2=
EXTT3=
EXTT4=
EXTT5=
EXTT6=
EXTT7=
EXTT8=
EXTT9=
EXTT10=
EXTT11=
EXTT12=
EXTT13=
EXTT14=
EXTT15=
PLAYORDER=
